<svg version="1.1" xmlns="http://www.w3.org/2000/svg" viewBox="0 0 1101.0213317871094 515.7913665771484" width="2202.0426635742188" height="1031.5827331542969">
  <!-- svg-source:excalidraw -->
  
  <defs>
    <style>
      @font-face {
        font-family: "Virgil";
        src: url("https://excalidraw.com/Virgil.woff2");
      }
      @font-face {
        font-family: "Cascadia";
        src: url("https://excalidraw.com/Cascadia.woff2");
      }
    </style>
  </defs>
  <rect x="0" y="0" width="1101.0213317871094" height="515.7913665771484" fill="#ffffff"></rect><g stroke-linecap="round" transform="translate(10 10) rotate(0 208.56822204589844 247.89568328857422)"><path d="M-0.53 0.26 C166.39 -1.97, 332.73 -3.07, 416.76 0.29 M-0.52 0.29 C131.79 1.1, 262.75 1.98, 417.15 -0.47 M417.23 -0.49 C419.1 106.59, 418.04 213.99, 417.68 496.51 M417 -0.04 C417.13 134.27, 417.16 268.09, 416.97 495.74 M417.93 496.62 C259.99 497, 103.56 495.9, -0.21 496.8 M417.33 496.09 C273.1 497.7, 129.08 498.28, 0.31 495.48 M-0.1 496.36 C1.37 324.63, 0.63 151.28, 0.38 0.28 M0.31 496.01 C-0.65 322.65, -0.13 149.6, 0.14 0.02" stroke="#000000" stroke-width="1" fill="none"></path></g><g stroke-linecap="round" transform="translate(14.788726806640625 15.137802124023438) rotate(0 202.86773681640625 46.8624267578125)"><path d="M0.39 -0.13 C88.43 -2.27, 177.74 -0.2, 405.32 0.88 M0.12 0.5 C105.8 -1.94, 212.72 -1.63, 406.19 -0.12 M406.03 -0.1 C406.9 20.98, 407.9 37.67, 405.03 93.88 M406.32 -0.18 C406.05 31.42, 405.67 64.86, 406.05 93.86 M405.5 93.52 C252.33 96.11, 96.48 96.4, -0.76 93.61 M405.92 94 C288.53 93.07, 171.92 93.43, -0.17 93.6 M0.61 93.19 C-2.08 63.07, 1.27 35, 0.58 -1.26 M-0.78 94.57 C0.68 57.47, -0.07 20.8, -0.19 0.66" stroke="#c92a2a" stroke-width="1" fill="none"></path></g><g stroke-linecap="round" transform="translate(17.927459716796875 117.24534606933594) rotate(0 200.1700439453125 187.4302978515625)"><path d="M-0.87 0.22 C126.67 0.99, 252.27 0.44, 400.77 0.3 M-0.19 -0.1 C129.35 -0.97, 259.29 -0.46, 400.16 0.52 M400.07 0.4 C403.33 92.84, 403.24 186.71, 399.7 374.03 M399.99 -0.2 C401.74 110.05, 402.21 220.73, 399.88 374.76 M401.08 374.68 C312.86 373.15, 226.67 373.6, -0.06 375.04 M399.8 374.49 C288.76 375.38, 178.23 374.83, -0.17 374.97 M-0.97 374.2 C0.63 286.89, -0.04 198.03, -0.06 -0.3 M-0.05 374.31 C1.92 296.09, 2.02 218.17, -0.34 -0.2" stroke="#5f3dc4" stroke-width="1" fill="none"></path></g><g stroke-linecap="round" transform="translate(26.672088623046875 128.2220001220703) rotate(0 190.88619995117188 46.51866149902344)"><path d="M0.16 -1.01 C137.62 -1.98, 275.8 -0.9, 382.49 0.17 M0.3 0.27 C151.03 1.23, 301.62 1.45, 381.2 -0.29 M382.17 -0.98 C383.61 31.05, 379.94 60.24, 379.87 92.36 M381.83 0.11 C381.51 23.26, 380.59 46.11, 380.9 92.2 M380.99 92.07 C271.28 93.48, 161.75 93.27, -0.3 93.25 M381.46 93.4 C237.57 91.15, 94.13 91.44, 0.41 93.53 M0.89 93.9 C-0.39 61.2, 0.82 30.64, 0.63 1.37 M-0.4 93.01 C-1.31 55.87, 0.3 20.88, -0.52 0.64" stroke="#5c940d" stroke-width="1" fill="none"></path></g><g transform="translate(145.987548828125 35.40299987792969) rotate(0 61.5 12.5)"><text x="0" y="18" font-family="Virgil, Segoe UI Emoji" font-size="20px" fill="#c92a2a" text-anchor="start" style="white-space: pre;" direction="ltr">Reading List</text></g><g transform="translate(90.17837524414062 68.63935852050781) rotate(0 137.5 10)"><text x="0" y="14" font-family="Virgil, Segoe UI Emoji" font-size="16px" fill="#c92a2a" text-anchor="start" style="white-space: pre;" direction="ltr">description of why I made this list</text></g><g transform="translate(52.591217041015625 148.55113220214844) rotate(0 77 30)"><text x="0" y="14" font-family="Virgil, Segoe UI Emoji" font-size="16px" fill="#5c940d" text-anchor="start" style="white-space: pre;" direction="ltr">Book name</text><text x="0" y="34" font-family="Virgil, Segoe UI Emoji" font-size="16px" fill="#5c940d" text-anchor="start" style="white-space: pre;" direction="ltr">book picture</text><text x="0" y="54" font-family="Virgil, Segoe UI Emoji" font-size="16px" fill="#5c940d" text-anchor="start" style="white-space: pre;" direction="ltr">To read/Have read</text></g><g stroke-linecap="round" transform="translate(28.09991455078125 240.35983276367188) rotate(0 190.88619995117188 46.51866149902344)"><path d="M-0.12 0.35 C96.53 0.73, 194.91 -0.4, 382.88 -0.13 M0.28 0.4 C127.92 -0.62, 256.37 -0.78, 382.24 -0.16 M380.92 -0.38 C380.69 32.99, 379.99 66.04, 382.22 94.21 M381.28 0.06 C382.69 33.87, 382.65 69.26, 381.55 92.63 M382.65 93.89 C292.93 91.31, 203.94 91.02, 0.1 93.94 M381.67 92.63 C259.98 93.28, 138.88 94.27, 0.37 93.47 M-1.45 91.8 C-0.67 73.65, -1.76 54.23, -1.87 -1.74 M-0.66 94.04 C0.89 74.61, -0.34 53.46, 0.4 0.95" stroke="#5c940d" stroke-width="1" fill="none"></path></g><g transform="translate(42.420379638671875 251.3325653076172) rotate(0 77 30)"><text x="0" y="14" font-family="Virgil, Segoe UI Emoji" font-size="16px" fill="#5c940d" text-anchor="start" style="white-space: pre;" direction="ltr">Book name</text><text x="0" y="34" font-family="Virgil, Segoe UI Emoji" font-size="16px" fill="#5c940d" text-anchor="start" style="white-space: pre;" direction="ltr">book picture</text><text x="0" y="54" font-family="Virgil, Segoe UI Emoji" font-size="16px" fill="#5c940d" text-anchor="start" style="white-space: pre;" direction="ltr">To read/Have read</text></g><g stroke-linecap="round" transform="translate(646.2826232910156 204.72605895996094) rotate(0 0.060943603515625 0.06097412109375)"><path d="M-0.01 -0.01 C0.03 0, 0.09 0, 0.12 -0.01 M0 0 C0.04 0, 0.08 0, 0.13 0 M0.11 0 C0.13 0.06, 0.13 0.1, 0.12 0.12 M0.13 0 C0.12 0.03, 0.13 0.05, 0.12 0.12 M0.11 0.12 C0.07 0.13, 0.03 0.12, -0.01 0.12 M0.12 0.12 C0.08 0.13, 0.05 0.12, 0 0.13 M0 0.13 C-0.01 0.09, -0.01 0.06, -0.01 -0.01 M0 0.12 C-0.01 0.09, 0 0.06, 0 0" stroke="#5c940d" stroke-width="1" fill="none"></path></g><g stroke-linecap="round" transform="translate(31.624664306640625 376.42723083496094) rotate(0 186.21389770507812 44.097625732421875)"><path d="M-0.73 -0.51 C76.44 0.25, 152.45 1.4, 371.21 -0.82 M0.01 0.38 C97.03 -1.55, 194.25 -0.75, 371.91 -0.59 M370.82 -1.47 C373.9 23.53, 373.8 43.07, 373.55 88.35 M373.28 0.45 C372.66 35.28, 372.62 70.03, 371.63 88.91 M373.45 87.39 C259.12 87.9, 146.35 87.63, 0.96 88.29 M372.18 87.77 C228.16 87.21, 84.44 87.44, -0.58 88.5 M0.14 87.21 C-2.09 68.74, -1.27 47.21, -1.44 1.27 M0.7 88.51 C-0.92 62.16, -1.13 37.59, 0.97 0.73" stroke="#e67700" stroke-width="1" fill="none"></path></g><g transform="translate(54.567596435546875 389.04063415527344) rotate(0 45 20)"><text x="0" y="14" font-family="Virgil, Segoe UI Emoji" font-size="16px" fill="#e67700" text-anchor="start" style="white-space: pre;" direction="ltr">Book Adder</text><text x="0" y="34" font-family="Virgil, Segoe UI Emoji" font-size="16px" fill="#e67700" text-anchor="start" style="white-space: pre;" direction="ltr"></text></g><g transform="translate(289.7684020996094 431.4803924560547) rotate(0 33 10)"><text x="0" y="14" font-family="Virgil, Segoe UI Emoji" font-size="16px" fill="#e67700" text-anchor="start" style="white-space: pre;" direction="ltr">To read</text></g><g transform="translate(46.945648193359375 424.6669158935547) rotate(0 87 10)"><text x="0" y="14" font-family="Virgil, Segoe UI Emoji" font-size="16px" fill="#e67700" text-anchor="start" style="white-space: pre;" direction="ltr">Input (book name, pic)</text></g><g transform="translate(811.2900695800781 16.339950561523438) rotate(0 36 23)"><text x="0" y="32" font-family="Virgil, Segoe UI Emoji" font-size="36px" fill="#000000" text-anchor="start" style="white-space: pre;" direction="ltr">APP</text></g><g transform="translate(459.6870422363281 52.43693542480469) rotate(0 24.5 12.5)"><text x="0" y="18" font-family="Virgil, Segoe UI Emoji" font-size="20px" fill="#c92a2a" text-anchor="start" style="white-space: pre;" direction="ltr">Title</text></g><g transform="translate(459.9814758300781 142.39366149902344) rotate(0 54 12.5)"><text x="0" y="18" font-family="Virgil, Segoe UI Emoji" font-size="20px" fill="#5f3dc4" text-anchor="start" style="white-space: pre;" direction="ltr">readingList</text></g><g transform="translate(465.7662658691406 277.3313446044922) rotate(0 50 12.5)"><text x="0" y="18" font-family="Virgil, Segoe UI Emoji" font-size="20px" fill="#5c940d" text-anchor="start" style="white-space: pre;" direction="ltr">bookCards</text></g><g transform="translate(472.5104675292969 397.9178924560547) rotate(0 97 37.5)"><text x="0" y="18" font-family="Virgil, Segoe UI Emoji" font-size="20px" fill="#e67700" text-anchor="start" style="white-space: pre;" direction="ltr">bookAdder</text><text x="0" y="43" font-family="Virgil, Segoe UI Emoji" font-size="20px" fill="#e67700" text-anchor="start" style="white-space: pre;" direction="ltr">(book name, picture,</text><text x="0" y="68" font-family="Virgil, Segoe UI Emoji" font-size="20px" fill="#e67700" text-anchor="start" style="white-space: pre;" direction="ltr">to read/have read)</text></g><g transform="translate(717.9804992675781 134.36341857910156) rotate(0 24.5 12.5)"><text x="0" y="18" font-family="Virgil, Segoe UI Emoji" font-size="20px" fill="#c92a2a" text-anchor="start" style="white-space: pre;" direction="ltr">Title</text></g><g transform="translate(859.4559020996094 135.7839813232422) rotate(0 54 12.5)"><text x="0" y="18" font-family="Virgil, Segoe UI Emoji" font-size="20px" fill="#5f3dc4" text-anchor="start" style="white-space: pre;" direction="ltr">readingList</text></g><g transform="translate(792.3426208496094 250.3529510498047) rotate(0 50 12.5)"><text x="0" y="18" font-family="Virgil, Segoe UI Emoji" font-size="20px" fill="#5c940d" text-anchor="start" style="white-space: pre;" direction="ltr">bookCards</text></g><g transform="translate(992.0213317871094 241.3065948486328) rotate(0 49.5 12.5)"><text x="0" y="18" font-family="Virgil, Segoe UI Emoji" font-size="20px" fill="#e67700" text-anchor="start" style="white-space: pre;" direction="ltr">bookAdder</text></g><g stroke-linecap="round"><g transform="translate(459.8531799316406 66.22734069824219) rotate(0 -30.571373479985652 4.634520528712301)"><path d="M0.78 0.59 C-9.48 2.01, -50.42 8.19, -60.78 9.42 M-0.27 -0.15 C-10.78 0.82, -52.13 6.02, -61.92 7.49" stroke="#c92a2a" stroke-width="1" fill="none"></path></g><g transform="translate(459.8531799316406 66.22734069824219) rotate(0 -30.571373479985652 4.634520528712301)"><path d="M-34.38 -7.06 C-44.29 -2.88, -56.38 5.6, -62.91 7.72 M-35.43 -6.56 C-43.48 -1.64, -51.1 3.3, -61.72 7.6" stroke="#c92a2a" stroke-width="1" fill="none"></path></g><g transform="translate(459.8531799316406 66.22734069824219) rotate(0 -30.571373479985652 4.634520528712301)"><path d="M-31.64 13.28 C-42.68 10.1, -55.77 11.21, -62.91 7.72 M-32.68 13.78 C-41.72 12.45, -50.18 11.13, -61.72 7.6" stroke="#c92a2a" stroke-width="1" fill="none"></path></g></g><g stroke-linecap="round"><g transform="translate(459.4882507324219 156.1782684326172) rotate(0 -22.38165324645587 9.305750926532767)"><path d="M-0.46 0.06 C-7.97 3.28, -38.68 16.39, -46.27 19.56 M1.5 -0.95 C-5.51 1.92, -35.84 14.94, -43.93 17.92" stroke="#5f3dc4" stroke-width="1" fill="none"></path></g><g transform="translate(459.4882507324219 156.1782684326172) rotate(0 -22.38165324645587 9.305750926532767)"><path d="M-25.51 0.3 C-27.71 3.95, -32.21 6.07, -44.92 19.92 M-26.19 1.68 C-31.01 5.74, -34.73 8.89, -43.52 18.64" stroke="#5f3dc4" stroke-width="1" fill="none"></path></g><g transform="translate(459.4882507324219 156.1782684326172) rotate(0 -22.38165324645587 9.305750926532767)"><path d="M-19.23 15.92 C-22.72 16.41, -28.48 15.39, -44.92 19.92 M-19.91 17.3 C-26.4 17.43, -31.7 16.64, -43.52 18.64" stroke="#5f3dc4" stroke-width="1" fill="none"></path></g></g><g stroke-linecap="round"><g transform="translate(460.4115295410156 297.52293395996094) rotate(0 -68.41445103575012 2.238316177693207)"><path d="M0.11 0.91 C-22.46 1.45, -113.32 3.63, -135.99 4.14 M-1.3 0.34 C-23.97 0.47, -114.38 2.19, -136.94 2.45" stroke="#5c940d" stroke-width="1" fill="none"></path></g><g transform="translate(460.4115295410156 297.52293395996094) rotate(0 -68.41445103575012 2.238316177693207)"><path d="M-107.4 -8.25 C-114.46 -5.39, -121.8 -1.4, -137 2.21 M-108.49 -9.23 C-115.21 -6.28, -122.12 -2.11, -137.79 2.31" stroke="#5c940d" stroke-width="1" fill="none"></path></g><g transform="translate(460.4115295410156 297.52293395996094) rotate(0 -68.41445103575012 2.238316177693207)"><path d="M-107.08 12.27 C-114.37 9.99, -121.79 8.84, -137 2.21 M-108.17 11.29 C-115.15 9.12, -122.14 8.18, -137.79 2.31" stroke="#5c940d" stroke-width="1" fill="none"></path></g></g><g stroke-linecap="round"><g transform="translate(467.3132019042969 275.10911560058594) rotate(0 -71.7273168330783 -56.47806149265466)"><path d="M1.18 1.13 C1.26 1.14, 21.06 17.38, -0.38 -0.21 C-21.83 -17.81, -102.09 -84.17, -127.5 -104.42 C-152.91 -124.68, -148.58 -118.79, -152.84 -121.75 M0.34 0.68 C0.3 0.89, 19.39 18.57, -1.53 1.21 C-22.45 -16.15, -99.97 -83.18, -125.2 -103.48 C-150.43 -123.77, -148.56 -117.49, -152.91 -120.57" stroke="#5c940d" stroke-width="1" fill="none"></path></g><g transform="translate(467.3132019042969 275.10911560058594) rotate(0 -71.7273168330783 -56.47806149265466)"><path d="M-135.6 -120.74 C-141.03 -121.67, -145.34 -121.03, -152.73 -121.67 M-137.39 -120.73 C-141.86 -120.97, -146.27 -120.64, -152.33 -120.01" stroke="#5c940d" stroke-width="1" fill="none"></path></g><g transform="translate(467.3132019042969 275.10911560058594) rotate(0 -71.7273168330783 -56.47806149265466)"><path d="M-139.52 -110.66 C-144.02 -113.96, -147.43 -115.65, -152.73 -121.67 M-141.3 -110.64 C-144.67 -113.62, -148 -116.05, -152.33 -120.01" stroke="#5c940d" stroke-width="1" fill="none"></path></g></g><g stroke-linecap="round"><g transform="translate(455.7850036621094 417.9236297607422) rotate(0 -54.833485419345095 -4.826553823798918)"><path d="M0.84 0.44 C-17.26 -1.15, -91.21 -8.39, -109.54 -10.09 M-0.18 -0.38 C-18.35 -1.73, -92.24 -7.3, -110.5 -8.63" stroke="#e67700" stroke-width="1" fill="none"></path></g><g transform="translate(455.7850036621094 417.9236297607422) rotate(0 -54.833485419345095 -4.826553823798918)"><path d="M-80.9 -16.81 C-88.16 -14.22, -93.9 -15.01, -111.8 -9.4 M-81.42 -17.64 C-92.05 -13.18, -103.54 -9.45, -110.16 -8.42" stroke="#e67700" stroke-width="1" fill="none"></path></g><g transform="translate(455.7850036621094 417.9236297607422) rotate(0 -54.833485419345095 -4.826553823798918)"><path d="M-82.42 3.65 C-89.26 1.79, -94.67 -3.44, -111.8 -9.4 M-82.94 2.82 C-92.88 -0.7, -103.78 -4.96, -110.16 -8.42" stroke="#e67700" stroke-width="1" fill="none"></path></g></g><g stroke-linecap="round"><g transform="translate(814.6718239622148 63.33995056152344) rotate(0 -29.46323387305665 29.6312669056328)"><path d="M-0.77 0.57 C-10.67 10.3, -49.32 49.91, -58.91 59.45 M1.03 -0.18 C-9.09 9.72, -49.97 47.86, -59.95 57.65" stroke="#000000" stroke-width="1" fill="none"></path></g><g transform="translate(814.6718239622148 63.33995056152344) rotate(0 -29.46323387305665 29.6312669056328)"><path d="M-45.69 30.46 C-49.93 40.57, -57.27 47.82, -60.66 56.54 M-46.17 31.47 C-50.6 37.93, -54.86 44.44, -59.88 57.03" stroke="#000000" stroke-width="1" fill="none"></path></g><g transform="translate(814.6718239622148 63.33995056152344) rotate(0 -29.46323387305665 29.6312669056328)"><path d="M-31.53 45.31 C-40.74 50.25, -52.93 52.42, -60.66 56.54 M-32.01 46.32 C-40.12 48.8, -48.22 51.3, -59.88 57.03" stroke="#000000" stroke-width="1" fill="none"></path></g></g><g stroke-linecap="round"><g transform="translate(858.8760681152344 73.58964538574219) rotate(0 20.989309146828077 24.440117567973218)"><path d="M0.41 0.08 C7.68 8.17, 36 40.42, 42.81 48.78 M-0.83 -0.92 C6.44 7.27, 35.57 41.62, 42.42 49.8" stroke="#000000" stroke-width="1" fill="none"></path></g><g transform="translate(858.8760681152344 73.58964538574219) rotate(0 20.989309146828077 24.440117567973218)"><path d="M16.53 36.63 C20.9 37.46, 29.45 42.07, 41.99 50.37 M15.62 34.73 C25.19 39.82, 35.42 45.15, 43.18 49.88" stroke="#000000" stroke-width="1" fill="none"></path></g><g transform="translate(858.8760681152344 73.58964538574219) rotate(0 20.989309146828077 24.440117567973218)"><path d="M32.21 23.39 C32.93 27.39, 37.8 35.1, 41.99 50.37 M31.3 21.5 C35.52 31.33, 40.26 41.29, 43.18 49.88" stroke="#000000" stroke-width="1" fill="none"></path></g></g><g stroke-linecap="round"><g transform="translate(884.4402770996094 176.2716522216797) rotate(0 -19.714723514104207 31.763451883941883)"><path d="M-0.52 -1.02 C-7.26 9.68, -33.16 53.51, -39.68 64.55 M1.4 1.05 C-5.59 11.34, -33.83 52.15, -40.83 62.54" stroke="#000000" stroke-width="1" fill="none"></path></g><g transform="translate(884.4402770996094 176.2716522216797) rotate(0 -19.714723514104207 31.763451883941883)"><path d="M-35.09 32.82 C-35.62 43.3, -37.14 55.07, -41.62 62.97 M-32.43 32.81 C-35.75 42.14, -37.9 50.64, -40.96 61.73" stroke="#000000" stroke-width="1" fill="none"></path></g><g transform="translate(884.4402770996094 176.2716522216797) rotate(0 -19.714723514104207 31.763451883941883)"><path d="M-18.15 44.41 C-24.81 50.64, -32.43 58.24, -41.62 62.97 M-15.49 44.39 C-23.58 50.45, -30.53 55.66, -40.96 61.73" stroke="#000000" stroke-width="1" fill="none"></path></g></g><g stroke-linecap="round"><g transform="translate(937.3887634277344 170.0818328857422) rotate(0 35.96047576889396 32.323337065842935)"><path d="M-0.35 1.08 C11.69 11.73, 60.08 53.78, 72.27 64.05 M1.67 0.6 C13.55 10.93, 59.53 51.95, 71.3 62.5" stroke="#000000" stroke-width="1" fill="none"></path></g><g transform="translate(937.3887634277344 170.0818328857422) rotate(0 35.96047576889396 32.323337065842935)"><path d="M45.24 51.29 C53.66 55.64, 59.83 59.84, 70.06 60.63 M43.62 50.51 C54.36 55.72, 63.52 59.96, 71.22 63.05" stroke="#000000" stroke-width="1" fill="none"></path></g><g transform="translate(937.3887634277344 170.0818328857422) rotate(0 35.96047576889396 32.323337065842935)"><path d="M58.91 35.99 C63.23 44.91, 65.28 53.72, 70.06 60.63 M57.3 35.2 C63.11 45.95, 67.2 55.86, 71.22 63.05" stroke="#000000" stroke-width="1" fill="none"></path></g></g></svg>